Coordinates
version=1
nRows=34
nColumns=38
inDegrees=no

Units are S.I. units (second, meters, Newtons, ...)
If the header above contains a line with 'inDegrees', this indicates whether rotational values are in degrees (yes) or radians (no).

endheader
time	pelvis_tilt	pelvis_list	pelvis_rotation	pelvis_tx	pelvis_ty	pelvis_tz	hip_flexion_r	hip_adduction_r	hip_rotation_r	knee_angle_r	ankle_angle_r	subtalar_angle_r	mtp_angle_r	hip_flexion_l	hip_adduction_l	hip_rotation_l	knee_angle_l	ankle_angle_l	subtalar_angle_l	mtp_angle_l	lumbar_extension	lumbar_bending	lumbar_rotation	arm_flex_r	arm_add_r	arm_rot_r	elbow_flex_r	pro_sup_r	wrist_flex_r	wrist_dev_r	arm_flex_l	arm_add_l	arm_rot_l	elbow_flex_l	pro_sup_l	wrist_flex_l	wrist_dev_l
0	-2.99809	1.27593	1.54694	0.422923	1.78498	1.02291	0.5933	-0.0242801	-0.0624748	0.098102	-0.232952	0	0	0.113713	0.00689792	-0.302513	0.10856	-0.0833171	0	0	0.11587	0.036611	0.0752719	-0.319972	-0.265324	0.0457381	0.52538	1.39141	0	0	-0.287202	-0.0836976	-0.569475	0.85312	1.19602	0	0
0.01	-3.02637	1.27083	1.57495	0.423369	1.7749	1.02016	0.595768	-0.0304677	-0.0505665	0.0402551	-0.246647	0	0	0.109781	0.0159601	-0.298425	0.111625	-0.0760239	0	0	0.115666	0.028362	0.0734013	-0.315262	-0.266856	0.0561654	0.523747	1.39487	0	0	-0.28322	-0.088598	-0.566051	0.855669	1.20406	0	0
0.02	-3.06591	1.26774	1.61164	0.423428	1.76345	1.01813	0.596538	-0.0379872	-0.0427265	0	-0.258381	0	0	0.151371	0.0104356	-0.397678	0.209067	-0.0495013	0	0	0.117246	0.0165019	0.0713919	-0.307182	-0.268055	0.0768166	0.513271	1.39531	0	0	-0.281546	-0.0953645	-0.565166	0.852851	1.2121	0	0
0.03	-3.07143	1.26299	1.618	0.423907	1.75237	1.01489	0.605202	-0.0373398	-0.0527813	0	-0.251012	0	0	0.100252	0.0269162	-0.304783	0.12859	-0.0569739	0	0	0.119211	0.0149249	0.0671067	-0.305315	-0.274595	0.0985301	0.515439	1.38982	0	0	-0.283333	-0.0988679	-0.564586	0.859858	1.21389	0	0
0.04	-3.07522	1.26388	1.62574	0.424376	1.74127	1.0127	0.606199	-0.0371108	-0.0641255	0	-0.247655	0	0	0.0928513	0.0258598	-0.297787	0.140502	-0.0529313	0	0	0.114541	0.0141128	0.0624653	-0.302	-0.277182	0.105854	0.515089	1.38707	0	0	-0.278857	-0.102619	-0.564529	0.861159	1.21139	0	0
0.05	-3.07531	1.2654	1.62635	0.424622	1.72965	1.0107	0.606239	-0.0332865	-0.0730974	0	-0.239101	0	0	0.0873434	0.0207011	-0.303595	0.161722	-0.0436034	0	0	0.110289	0.0160452	0.0612349	-0.300444	-0.276653	0.0950677	0.514386	1.40501	0	0	-0.274873	-0.107359	-0.560251	0.860052	1.19783	0	0
0.06	-3.0776	1.26493	1.62604	0.4247	1.71773	1.00886	0.608083	-0.0287242	-0.0723994	0	-0.231461	0	0	0.0824389	0.0171434	-0.308116	0.178983	-0.0360708	0	0	0.109595	0.0186589	0.0620321	-0.299248	-0.277216	0.0857112	0.513258	1.4158	0	0	-0.272166	-0.112255	-0.553633	0.856321	1.1804	0	0
0.07	-3.07615	1.26494	1.62148	0.424683	1.70563	1.00736	0.609299	-0.0226208	-0.067242	0	-0.229232	0	0	0.0773573	0.0121414	-0.308807	0.195791	-0.0329078	0	0	0.108927	0.022956	0.0622852	-0.297655	-0.279429	0.0803857	0.512523	1.41843	0	0	-0.269478	-0.114442	-0.551275	0.851633	1.17056	0	0
0.08	-3.0694	1.26699	1.61082	0.424544	1.69325	1.00637	0.60806	-0.0139392	-0.0588743	0	-0.229991	0	0	0.0711379	0.00435352	-0.314116	0.215806	-0.0296601	0	0	0.106916	0.0295119	0.0632195	-0.296481	-0.281789	0.0727241	0.512103	1.41943	0	0	-0.266377	-0.116053	-0.548107	0.8445	1.15954	0	0
0.09	-3.06015	1.27087	1.59699	0.424403	1.68048	1.00584	0.603592	-0.00360754	-0.0474837	0	-0.235819	0	0	0.0631932	-0.00478618	-0.323703	0.237824	-0.0270197	0	0	0.103521	0.0373832	0.0647054	-0.296311	-0.283842	0.0606546	0.512769	1.41768	0	0	-0.263389	-0.11848	-0.542686	0.834611	1.14909	0	0
0.1	-3.0494	1.27881	1.57967	0.424147	1.66727	1.00587	0.593002	0.00874629	-0.0321304	0	-0.249163	0	0	0.0509265	-0.0151446	-0.339951	0.261712	-0.0254786	0	0	0.0954176	0.0467986	0.0710359	-0.300929	-0.284825	0.0367391	0.519662	1.41301	0	0	-0.258057	-0.123102	-0.529447	0.820734	1.13521	0	0
0.11	-3.04028	1.28938	1.56295	0.423866	1.6537	1.00629	0.579423	0.021332	-0.0183757	0.00703622	-0.26573	0	0	0.0344453	-0.023548	-0.351974	0.2817	-0.0293065	0	0	0.084212	0.0561938	0.0815626	-0.310447	-0.296065	0.045611	0.536582	1.34392	0	0	-0.254127	-0.137099	-0.488675	0.80558	1.09534	0	0
0.12	-3.02749	1.29535	1.54619	0.423793	1.63988	1.00663	0.570967	0.0327674	-0.0115071	0.0258851	-0.286258	0	0	0.0241567	-0.0325147	-0.356686	0.302893	-0.0396008	0	0	0.0785399	0.0678937	0.0940816	-0.330344	-0.276979	-0.0618903	0.553802	1.42297	0	0	-0.239597	-0.138841	-0.476591	0.780548	1.08749	0	0
0.13	-3.01303	1.29606	1.53035	0.423824	1.62589	1.00677	0.564791	0.0423516	-0.00082036	0.0318132	-0.316912	0	0	0.021381	-0.0422942	-0.356071	0.326823	-0.0522015	0	0	0.083827	0.0771086	0.0963125	-0.341507	-0.277522	-0.0802691	0.562657	1.3991	0	0	-0.233839	-0.137216	-0.479383	0.761223	1.08423	0	0
0.14	-2.99863	1.29279	1.51643	0.42388	1.6118	1.00688	0.560911	0.0499565	0.00958129	0.0322509	-0.347406	0	0	0.0245211	-0.0521916	-0.347412	0.352206	-0.0690546	0	0	0.0952927	0.086446	0.0972985	-0.354408	-0.277147	-0.0984199	0.570751	1.37436	0	0	-0.22817	-0.136401	-0.480911	0.738987	1.08408	0	0
0.15	-2.98012	1.28809	1.49919	0.423787	1.59763	1.00713	0.55759	0.0578183	0.0149208	0.0347528	-0.36281	0	0	0.0293888	-0.0649731	-0.328368	0.375292	-0.0868922	0	0	0.110648	0.0953738	0.0990959	-0.366897	-0.275345	-0.11314	0.573623	1.35241	0	0	-0.224276	-0.136694	-0.479825	0.71947	1.0875	0	0
0.16	-2.96611	1.285	1.48431	0.423676	1.58351	1.00785	0.552932	0.064261	0.0177562	0.0427189	-0.364575	0	0	0.0383683	-0.0761007	-0.32314	0.412135	-0.104471	0	0	0.123837	0.102915	0.103038	-0.37839	-0.274037	-0.124616	0.575431	1.33093	0	0	-0.220101	-0.136014	-0.479486	0.701016	1.09103	0	0
0.17	-2.953	1.28331	1.46755	0.423423	1.56952	1.00891	0.547869	0.0707717	0.0219194	0.0569146	-0.360832	0	0	0.0518168	-0.0881948	-0.333035	0.464633	-0.11737	0	0	0.131045	0.111654	0.108732	-0.388627	-0.266598	-0.161836	0.579808	1.35029	0	0	-0.215135	-0.135607	-0.474364	0.682561	1.08548	0	0
0.18	-2.93631	1.28098	1.44584	0.422627	1.55582	1.0102	0.544395	0.0796201	0.03056	0.0764733	-0.350037	0	0	0.0608787	-0.102392	-0.316291	0.492265	-0.135304	0	0	0.131668	0.119602	0.106375	-0.388584	-0.266375	-0.172444	0.583202	1.34504	0	0	-0.215464	-0.133143	-0.479909	0.672212	1.08034	0	0
0.19	-2.92502	1.27852	1.42839	0.422126	1.5424	1.01161	0.542517	0.0873096	0.040832	0.100257	-0.328668	0	0	0.0823165	-0.115062	-0.328322	0.557913	-0.176776	0	0	0.133399	0.124745	0.101179	-0.385022	-0.287764	-0.107716	0.585074	1.24797	0	0	-0.218824	-0.126571	-0.498834	0.666846	1.0839	0	0
0.2	-2.91605	1.27874	1.41099	0.421538	1.52907	1.01319	0.536804	0.09592	0.0545575	0.120919	-0.311506	0	0	0.105852	-0.130556	-0.365844	0.638252	-0.225477	0	0	0.128643	0.131551	0.107257	-0.387876	-0.277787	-0.15479	0.591396	1.29696	0	0	-0.212878	-0.12103	-0.5101	0.654241	1.0914	0	0
0.21	-2.90749	1.28132	1.39307	0.420733	1.51584	1.01486	0.527014	0.105368	0.0686237	0.137535	-0.297308	0	0	0.12469	-0.147977	-0.401553	0.705315	-0.264289	0	0	0.121235	0.135792	0.11089	-0.385912	-0.28266	-0.146305	0.595221	1.28481	0	0	-0.21182	-0.117487	-0.518696	0.648642	1.09239	0	0
0.22	-2.89817	1.28439	1.37635	0.419957	1.50294	1.01635	0.515217	0.113934	0.0793379	0.150093	-0.284113	0	0	0.141829	-0.163244	-0.414906	0.763881	-0.302278	0	0	0.113345	0.138228	0.114154	-0.382919	-0.286847	-0.135737	0.597256	1.27672	0	0	-0.211279	-0.115412	-0.525241	0.647034	1.09271	0	0
0.23	-2.88484	1.28858	1.35999	0.419458	1.49012	1.01771	0.500522	0.120635	0.0802496	0.158794	-0.271903	0	0	0.160099	-0.178914	-0.421709	0.822466	-0.338473	0	0	0.104563	0.140431	0.113067	-0.379365	-0.291579	-0.122601	0.599694	1.27101	0	0	-0.211282	-0.114509	-0.530364	0.646954	1.09144	0	0
0.24	-2.86948	1.29323	1.34582	0.419232	1.47741	1.01891	0.484292	0.125066	0.0728227	0.164226	-0.261845	0	0	0.180024	-0.193661	-0.421674	0.877813	-0.370137	0	0	0.0960468	0.142148	0.10863	-0.375676	-0.296432	-0.107693	0.602016	1.26619	0	0	-0.211143	-0.114939	-0.533614	0.647378	1.08902	0	0
0.25	-2.85539	1.30061	1.33497	0.41947	1.46471	1.02018	0.464718	0.126711	0.0605001	0.167091	-0.252626	0	0	0.200989	-0.209295	-0.443913	0.941119	-0.428625	0	0	0.0842646	0.14375	0.106517	-0.375844	-0.291802	-0.128095	0.607561	1.3059	0	0	-0.207653	-0.117434	-0.528091	0.644946	1.08214	0	0
0.26	-2.8434	1.3063	1.32892	0.419802	1.45234	1.02132	0.446609	0.127263	0.0491617	0.167251	-0.243766	0	0	0.221778	-0.2189	-0.435564	0.987001	-0.460391	0	0	0.0750879	0.143853	0.0984182	-0.371568	-0.295147	-0.11867	0.610147	1.31063	0	0	-0.205647	-0.118536	-0.531436	0.644089	1.07931	0	0
0.27	-2.83412	1.31097	1.32713	0.420227	1.44007	1.02245	0.429604	0.12717	0.0377174	0.166987	-0.232207	0	0	0.24459	-0.225533	-0.421502	1.02904	-0.47373	0	0	0.0693726	0.141294	0.0801161	-0.357462	-0.319393	-0.0340305	0.607026	1.22978	0	0	-0.212208	-0.119213	-0.540232	0.650628	1.07074	0	0
0.28	-2.82843	1.31343	1.32924	0.420596	1.42781	1.02353	0.414151	0.126874	0.0282883	0.164743	-0.225402	0	0	0.269728	-0.229389	-0.403272	1.06832	-0.456385	0	0	0.0660017	0.140858	0.0715337	-0.353259	-0.317241	-0.0399867	0.605852	1.2564	0	0	-0.209638	-0.122081	-0.539562	0.64573	1.06533	0	0
0.29	-2.82741	1.31597	1.33368	0.420844	1.41566	1.02476	0.399003	0.126173	0.0236622	0.164169	-0.217337	0	0	0.293326	-0.230162	-0.384445	1.10438	-0.423764	0	0	0.0632214	0.139392	0.0646052	-0.347626	-0.316409	-0.0413833	0.603274	1.2791	0	0	-0.208001	-0.125493	-0.53676	0.640543	1.05764	0	0
0.3	-2.83077	1.31902	1.34003	0.421009	1.40361	1.02617	0.383835	0.124792	0.0225948	0.165698	-0.208691	0	0	0.315191	-0.229014	-0.368629	1.13635	-0.385718	0	0	0.060088	0.137048	0.0605637	-0.341555	-0.316467	-0.0405273	0.60024	1.29853	0	0	-0.206199	-0.129086	-0.531723	0.634446	1.04894	0	0
0.31	-2.83925	1.32213	1.34973	0.421123	1.39169	1.02768	0.369144	0.122225	0.0236612	0.168526	-0.199932	0	0	0.336378	-0.226057	-0.355358	1.16369	-0.349093	0	0	0.0572012	0.133768	0.0584896	-0.335304	-0.317107	-0.0383968	0.597108	1.31618	0	0	-0.204183	-0.132634	-0.525382	0.627165	1.03984	0	0
0.32	-2.85749	1.3243	1.36753	0.420942	1.37994	1.02896	0.365244	0.111666	0.0160219	0.196778	-0.186116	0	0	0.358343	-0.221244	-0.344929	1.18689	-0.316831	0	0	0.0557402	0.127999	0.05782	-0.329415	-0.317232	-0.0365449	0.595182	1.33263	0	0	-0.203663	-0.136712	-0.518372	0.621665	1.0313	0	0
0.33	-2.87786	1.32708	1.38768	0.421083	1.36824	1.03049	0.362204	0.104254	-0.00518841	0.227043	-0.170505	0	0	0.378878	-0.214779	-0.335087	1.204	-0.288576	0	0	0.0540717	0.121986	0.0572209	-0.323451	-0.317685	-0.0358166	0.593129	1.34789	0	0	-0.202591	-0.140349	-0.510397	0.614453	1.02366	0	0
